<svg xmlns="http://www.w3.org/2000/svg" width="16" height="16" viewBox="0 0 16 16">
  <defs>
    <style>
      .cls-1 {
        fill: #fff;
        fill-rule: evenodd;
      }
    </style>
  </defs>
  <path class="cls-1" d="M980.6,493.217v-0.025c0,0.008-.011.016-0.016,0.025H980.6ZM986.817,486H973.182A1.164,1.164,0,0,0,972,487.146v13.708A1.165,1.165,0,0,0,973.182,502h13.635A1.165,1.165,0,0,0,988,500.854V487.146A1.164,1.164,0,0,0,986.817,486Zm-9.967,13.393h-2.417v-7.224h2.417v7.224Zm-1.208-8.211h-0.016A1.381,1.381,0,1,1,975.642,491.182Zm9.922,8.211h-2.417v-3.865c0-.971-0.349-1.633-1.224-1.633a1.322,1.322,0,0,0-1.24.878,1.631,1.631,0,0,0-.079.586v4.034h-2.417s0.032-6.547,0-7.224H980.6v1.023A2.4,2.4,0,0,1,982.782,492c1.59,0,2.782,1.033,2.782,3.252v4.142Z" transform="translate(-972 -486)"/>
</svg>
