<svg xmlns="http://www.w3.org/2000/svg" width="20" height="13.813" viewBox="0 0 20 13.813">
  <defs>
    <style>
      .cls-1 {
        fill: #fff;
        fill-rule: evenodd;
      }
    </style>
  </defs>
  <path class="cls-1" d="M950,490.283a0.224,0.224,0,0,1-.038-0.033,3.639,3.639,0,0,0-2.637-.939l-0.031-.068a0.022,0.022,0,0,1,.018-0.006,3.188,3.188,0,0,0,1.621-.625,0.208,0.208,0,0,0-.211-0.3,5.517,5.517,0,0,0-1.266.291c0.48-.291.667-0.494,0.561-0.6a2.535,2.535,0,0,0-1.521.693,0.763,0.763,0,0,0,.224-0.526,4.314,4.314,0,0,0-.673.538,10.1,10.1,0,0,0-.979,1.182l-0.012.03a10.277,10.277,0,0,0-1.36,2.981l-0.1.075-0.019.017a5.038,5.038,0,0,0-1.4-1.151,16.95,16.95,0,0,0-2.307-1.155,20.177,20.177,0,0,0-2.937-1.162,2.757,2.757,0,0,0,1.615,2.485v0.019a3.616,3.616,0,0,0-1.1.155q0.1,1.455,2.182,2.009l-0.006.018a1.635,1.635,0,0,0-1.34.52,2.429,2.429,0,0,0,2.425,1.212,1.635,1.635,0,0,0-.53.371,0.738,0.738,0,0,0-.212.742,1.355,1.355,0,0,0,1.359.594h0l0.038,0.043-0.019.018a5.186,5.186,0,0,1-4.134,1.51l-0.025.012A5.353,5.353,0,0,1,934,497.888a9.767,9.767,0,0,0,4.551,3.389,11.39,11.39,0,0,0,6.465.147h0.038a10.28,10.28,0,0,0,5.317-3.5,6.886,6.886,0,0,0,1.266-2.659,2.673,2.673,0,0,0,2.363-.89l-0.012-.019a4.973,4.973,0,0,1-2.126-.117v-0.112c0-.006,0-0.006.006,0,1.154-.124,1.833-0.475,2.051-1.058a3.393,3.393,0,0,1-2.382.025A4.76,4.76,0,0,0,950,490.283Z" transform="translate(-934 -488)"/>
</svg>
