<svg xmlns="http://www.w3.org/2000/svg" width="16" height="16" viewBox="0 0 16 16">
  <defs>
    <style>
      .cls-1 {
        fill: #c6cacc;
        fill-rule: evenodd;
      }
    </style>
  </defs>
  <path class="cls-1" d="M693.6,439.217v-0.025c0,0.008-.011.016-0.016,0.025H693.6ZM699.817,432H686.182A1.164,1.164,0,0,0,685,433.146v13.708A1.165,1.165,0,0,0,686.182,448h13.635A1.165,1.165,0,0,0,701,446.854V433.146A1.164,1.164,0,0,0,699.817,432Zm-9.967,13.393h-2.417v-7.224h2.417v7.224Zm-1.208-8.211h-0.016A1.381,1.381,0,1,1,688.642,437.182Zm9.922,8.211h-2.417v-3.865c0-.971-0.349-1.633-1.224-1.633a1.322,1.322,0,0,0-1.24.878,1.631,1.631,0,0,0-.079.586v4.034h-2.417s0.032-6.547,0-7.224H693.6v1.023A2.4,2.4,0,0,1,695.782,438c1.59,0,2.782,1.033,2.782,3.252v4.142Z" transform="translate(-685 -432)"/>
</svg>
